<svg width="49" height="49" viewBox="0 0 49 49" fill="none" xmlns="http://www.w3.org/2000/svg">
<path d="M40.0167 42.875L27.1542 30.0125C26.1333 30.8292 24.9594 31.4757 23.6323 31.9521C22.3052 32.4285 20.8931 32.6667 19.3958 32.6667C15.6868 32.6667 12.5477 31.3821 9.97865 28.813C7.40955 26.2439 6.125 23.1049 6.125 19.3958C6.125 15.6868 7.40955 12.5477 9.97865 9.97865C12.5477 7.40955 15.6868 6.125 19.3958 6.125C23.1049 6.125 26.2439 7.40955 28.813 9.97865C31.3821 12.5477 32.6667 15.6868 32.6667 19.3958C32.6667 20.8931 32.4285 22.3052 31.9521 23.6323C31.4757 24.9594 30.8292 26.1333 30.0125 27.1542L42.875 40.0167L40.0167 42.875ZM19.3958 28.5833C21.9479 28.5833 24.1172 27.6901 25.9036 25.9036C27.6901 24.1172 28.5833 21.9479 28.5833 19.3958C28.5833 16.8438 27.6901 14.6745 25.9036 12.888C24.1172 11.1016 21.9479 10.2083 19.3958 10.2083C16.8438 10.2083 14.6745 11.1016 12.888 12.888C11.1016 14.6745 10.2083 16.8438 10.2083 19.3958C10.2083 21.9479 11.1016 24.1172 12.888 25.9036C14.6745 27.6901 16.8438 28.5833 19.3958 28.5833Z" fill="#49454F"/>
</svg>
