<svg width="100" height="100" viewBox="0 0 100 100" fill="none" xmlns="http://www.w3.org/2000/svg">
<path d="M86.8334 19.2083C84.7052 17.0792 82.1784 15.3902 79.3974 14.2378C76.6163 13.0855 73.6354 12.4924 70.625 12.4924C67.6147 12.4924 64.6338 13.0855 61.8527 14.2378C59.0717 15.3902 56.5449 17.0792 54.4167 19.2083L50 23.625L45.5834 19.2083C41.2847 14.9096 35.4544 12.4946 29.375 12.4946C23.2957 12.4946 17.4654 14.9096 13.1667 19.2083C8.868 23.507 6.453 29.3373 6.453 35.4166C6.453 41.4959 8.868 47.3263 13.1667 51.625L50 88.4583L86.8334 51.625C88.9625 49.4968 90.6515 46.97 91.8039 44.189C92.9562 41.4079 93.5493 38.427 93.5493 35.4166C93.5493 32.4063 92.9562 29.4254 91.8039 26.6443C90.6515 23.8633 88.9625 21.3365 86.8334 19.2083Z" stroke="#1E1E1E" stroke-width="4" stroke-linecap="round" stroke-linejoin="round"/>
</svg>
